<?xml version="1.0" standalone="no"?><!DOCTYPE svg PUBLIC "-//W3C//DTD SVG 1.1//EN" "http://www.w3.org/Graphics/SVG/1.1/DTD/svg11.dtd"><svg t="1595385075010" class="icon" viewBox="0 0 1024 1024" version="1.1" xmlns="http://www.w3.org/2000/svg" p-id="7687" xmlns:xlink="http://www.w3.org/1999/xlink" width="48" height="48"><defs><style type="text/css"></style></defs><path d="M512 7.20122926c-276.9582815 0-502.306601 225.34831948-502.306601 502.306601 0 276.9582815 225.3469667 502.30524953 502.306601 502.30524953 276.95693005 0 502.30524953-225.3469667 502.30524953-502.30524953C1014.30524953 232.54954875 788.95693005 7.20122926 512 7.20122926zM512 958.6241447c-247.65806646 0-449.11631445-201.46095092-449.11631445-449.11631444 0-247.65806646 201.45824801-449.11631445 449.11631445-449.11631446 247.65671499 0 449.11631445 201.45959946 449.11631445 449.11631446C961.11631445 757.16319246 759.65671499 958.6241447 512 958.6241447z" p-id="7688" fill="#ffffff"></path><path d="M361.85160235 764.4916262L361.85160235 248.86920328l165.38656406 0c54.76790816 0 97.08924061 11.3961803 126.95723744 34.17367094 29.86123822 22.77884209 44.79523598 57.78390786 44.79523598 105.00302899 0 23.61023695-7.13917313 44.38562208-21.42563078 62.32886225-14.28510618 17.94323886-33.10975699 31.16443113-56.48071497 39.66357548l0 1.05715402c30.92515216 6.3713165 55.12074376 21.30531558 72.59759039 44.80199589 17.46468091 23.49668032 26.20310423 51.28686901 26.20310424 83.39624898 0 47.9247923-14.99753597 84.11273578-44.97773797 108.54084775-29.98155344 24.44027905-71.53367648 36.65433437-124.65231605 36.65433438L361.85160235 764.48892327zM427.36679793 469.13858358l117.57667983 0c27.14805439-0.7056712 48.69264895-8.0841233 64.63378363-22.13670912 15.93437478-14.04041874 23.89953431-34.17367092 23.89953431-60.37812792 0-28.79732429-8.91551686-50.10263854-26.73303334-63.91594538-17.82968225-13.81330684-44.33019654-20.72671951-79.50424449-20.72671954L427.36679793 301.98108295 427.36679793 469.13858358zM427.36679793 521.9097947l0 189.8092689 122.88949087 0c33.28685183 0 58.96137841-7.84484433 77.02358102-23.54669871 18.06355408-15.7018544 27.09127609-38.41716089 27.09127608-68.17160112 0-30.92515216-7.61232395-55.00042852-22.84102884-72.23934764s-39.01603406-25.85162009-71.35793573-25.8516201L427.36679793 521.9097947z" p-id="7689" fill="#ffffff"></path></svg>