<?xml version="1.0" standalone="no"?><!DOCTYPE svg PUBLIC "-//W3C//DTD SVG 1.1//EN" "http://www.w3.org/Graphics/SVG/1.1/DTD/svg11.dtd"><svg t="1587017511908" class="icon" viewBox="0 0 1024 1024" version="1.1" xmlns="http://www.w3.org/2000/svg" p-id="6843" xmlns:xlink="http://www.w3.org/1999/xlink" width="28" height="28"><defs><style type="text/css"></style></defs><path d="M512 1024c-282.304 0-512-229.696-512-512s229.696-512 512-512 512 229.696 512 512-229.696 512-512 512zM512 48.768C256.576 48.768 48.768 256.576 48.768 512S256.576 975.232 512 975.232 975.232 767.424 975.232 512 767.424 48.768 512 48.768z" fill="#e6e6e6" p-id="6844"></path><path d="M780.16 365.696H243.84a24.32 24.32 0 1 1 0-48.768h536.384a24.32 24.32 0 1 1-0.064 48.768zM780.16 536.384H243.84a24.32 24.32 0 1 1 0-48.768h536.384a24.32 24.32 0 1 1-0.064 48.768zM780.16 707.072H243.84a24.448 24.448 0 0 1 0-48.768h536.384a24.32 24.32 0 1 1-0.064 48.768z" fill="#e6e6e6" p-id="6845"></path></svg>