<?xml version="1.0" standalone="no"?><!DOCTYPE svg PUBLIC "-//W3C//DTD SVG 1.1//EN" "http://www.w3.org/Graphics/SVG/1.1/DTD/svg11.dtd"><svg t="1589767983739" class="icon" viewBox="0 0 1024 1024" version="1.1" xmlns="http://www.w3.org/2000/svg" p-id="2758" width="48" height="48" xmlns:xlink="http://www.w3.org/1999/xlink"><defs><style type="text/css"></style></defs><path d="M256 140.8h512c19.2 0 32-12.8 32-32s-19.2-32-32-32H256c-19.2 0-32 12.8-32 32s19.2 32 32 32z m-44.8 140.8h601.6c19.2 0 32-12.8 32-32s-12.8-32-32-32H211.2c-19.2 0-32 12.8-32 32s12.8 32 32 32zM121.6 416h787.2c19.2 0 32-12.8 32-32s-12.8-32-32-32H121.6c-19.2 0-32 12.8-32 32s12.8 32 32 32zM928 512H96c-19.2 0-32 12.8-32 32v371.2c0 19.2 12.8 32 32 32h832c19.2 0 32-12.8 32-32V544c0-19.2-12.8-32-32-32z m-32 371.2H128V576h768v307.2z" p-id="2759" fill="#ffffff"></path><path d="M544 812.8c51.2 0 89.6-38.4 89.6-89.6S588.8 640 544 640s-89.6 38.4-89.6 89.6 38.4 83.2 89.6 83.2z m0-108.8c12.8 0 25.6 12.8 25.6 25.6s-12.8 25.6-25.6 25.6-25.6-12.8-25.6-25.6S531.2 704 544 704z m217.6 108.8c51.2 0 89.6-38.4 89.6-89.6S812.8 640 761.6 640 672 678.4 672 729.6s38.4 83.2 89.6 83.2z m0-108.8c12.8 0 25.6 12.8 25.6 25.6s-12.8 25.6-25.6 25.6-25.6-12.8-25.6-25.6 12.8-25.6 25.6-25.6zM243.2 832c19.2 0 32-12.8 32-32V659.2c0-19.2-12.8-32-32-32s-32 12.8-32 32V800c0 12.8 19.2 32 32 32z m128 0c19.2 0 32-12.8 32-32V659.2c0-19.2-12.8-32-32-32s-32 12.8-32 32V800c0 12.8 12.8 32 32 32z" p-id="2760" fill="#ffffff"></path></svg>