<?xml version="1.0" standalone="no"?><!DOCTYPE svg PUBLIC "-//W3C//DTD SVG 1.1//EN" "http://www.w3.org/Graphics/SVG/1.1/DTD/svg11.dtd"><svg t="1589768427791" class="icon" viewBox="0 0 1024 1024" version="1.1" xmlns="http://www.w3.org/2000/svg" p-id="8052" xmlns:xlink="http://www.w3.org/1999/xlink" width="48" height="48"><defs><style type="text/css"></style></defs><path d="M379.870968 644.129032v49.548387H181.677419V330.322581h198.193549v49.548387h-148.645162v115.612903h148.645162v33.032258h-148.645162v115.612903h148.645162z m33.032258 49.548387V330.322581h198.193548v363.354838H412.903226z m148.645161-313.806451h-99.096774v264.258064h99.096774V379.870968z m316.944516 489.422451l-35.179355-35.162838a467.406452 467.406452 0 1 0-49.548387 43.883354l35.509678 35.559226a511.504516 511.504516 0 1 1 49.218064-44.279742zM842.322581 495.483871v198.193548H644.129032v-49.548387h148.645162v-115.612903h-148.645162V330.322581h198.193549v49.548387h-148.645162v115.612903h148.645162z" p-id="8053" fill="#ffffff"></path></svg>