<?xml version="1.0" standalone="no"?><!DOCTYPE svg PUBLIC "-//W3C//DTD SVG 1.1//EN" "http://www.w3.org/Graphics/SVG/1.1/DTD/svg11.dtd"><svg t="1584499424257" class="icon" viewBox="0 0 1024 1024" version="1.1" xmlns="http://www.w3.org/2000/svg" p-id="1321" xmlns:xlink="http://www.w3.org/1999/xlink" width="32" height="32"><defs><style type="text/css"></style></defs><path d="M833.8 292.6m-29.3 0a29.3 29.3 0 1 0 58.6 0 29.3 29.3 0 1 0-58.6 0Z" fill="#F2BC36" p-id="1322"></path><path d="M762.4 277.1c-8.1 0-14.6-6.6-14.6-14.6 0-8.1 6.6-14.6 14.6-14.6s14.6 6.6 14.6 14.6c0 8.1-6.5 14.6-14.6 14.6zM833.8 321.8c-16.1 0-29.3-13.1-29.3-29.3 0-16.1 13.1-29.3 29.3-29.3 16.1 0 29.3 13.1 29.3 29.3 0 16.2-13.1 29.3-29.3 29.3z m0-49.7c-11.3 0-20.5 9.2-20.5 20.5s9.2 20.5 20.5 20.5 20.5-9.2 20.5-20.5-9.2-20.5-20.5-20.5z" fill="#471A1A" p-id="1323"></path><path d="M855.6 472c0-76.5-62-138.5-138.5-138.5-23.1 0-44.9 5.7-64.1 15.7 0.1-2 0.1-4 0.1-6 0-76.5-62-138.5-138.5-138.5s-138.5 62-138.5 138.5c0 2.2 0 4.3 0.1 6.4-19.4-10.3-41.5-16.2-65-16.2-76.5 0-138.5 62-138.5 138.5 0 63.4 42.6 116.8 100.7 133.2-11.9 20.5-18.8 44.2-18.8 69.6 0 76.5 62 138.5 138.5 138.5 52 0 97.2-28.7 120.9-71 23.7 42.4 69 71 120.9 71 76.5 0 138.5-62 138.5-138.5 0-25.4-6.9-49.2-18.8-69.6 58.4-16.3 101-69.7 101-133.1z" fill="#FF2929" p-id="1324"></path><path d="M635.2 818.5c-49 0-94.6-25.2-120.9-66.2-26.3 41-71.9 66.2-120.9 66.2-79.2 0-143.6-64.4-143.6-143.6 0-23.2 5.7-46.1 16.4-66.6C208 589 167.9 533.8 167.9 472c0-79.2 64.4-143.6 143.6-143.6 20.6 0 41.1 4.5 59.7 13 1-78.3 65-141.7 143.6-141.7 78.4 0 142.4 63.2 143.6 141.4 18.4-8.3 38.6-12.6 58.8-12.6 79.2 0 143.6 64.4 143.6 143.6 0 61.8-40.1 116.9-98.3 136.3 10.7 20.5 16.4 43.4 16.4 66.6-0.1 79.1-64.6 143.5-143.7 143.5z m-121-86.6l4.5 8c23.6 42.2 68.2 68.4 116.5 68.4 73.5 0 133.4-59.8 133.4-133.4 0-23.6-6.3-46.7-18.1-67.1l-3.3-5.7 6.4-1.8c57.1-16.2 97-68.9 97-128.3 0-73.5-59.8-133.4-133.4-133.4-21.7 0-42.5 5.1-61.7 15.1l-7.8 4.1 0.3-8.8c0.1-1.9 0.1-3.9 0.1-5.8 0-73.5-59.8-133.4-133.4-133.4-73.5 0-133.4 59.8-133.4 133.4 0 2.1 0 4.1 0.1 6.2l0.4 9-8-4.2c-19.2-10.2-40.8-15.6-62.6-15.6-73.4 0.1-133.2 59.9-133.2 133.4 0 59.4 39.9 112.2 97 128.3l6.4 1.8-3.3 5.7c-11.8 20.3-18.1 43.5-18.1 67.1 0 73.5 59.8 133.4 133.4 133.4 48.3 0 92.9-26.2 116.5-68.4l4.3-8z" fill="#471A1A" p-id="1325"></path><path d="M529.5 338.3c0-8.6-7-15.6-15.6-15.6s-15.7 7-15.7 15.6c0 7 4.6 12.9 10.8 14.9v101.9h9.6V353.2c6.4-2 10.9-7.9 10.9-14.9zM538.4 384.8l-9.3 68.7 9.5 1.3 9.3-68.6c6.5-1.2 11.8-6.4 12.7-13.3 1.2-8.6-4.8-16.4-13.4-17.6-8.6-1.2-16.4 4.8-17.6 13.4-0.9 6.8 2.8 13.3 8.8 16.1zM489.4 384.8l9.3 68.7-9.6 1.3-9.3-68.6c-6.5-1.2-11.8-6.4-12.7-13.3-1.2-8.6 4.8-16.4 13.4-17.6s16.4 4.8 17.6 13.4c0.9 6.8-2.8 13.3-8.7 16.1zM692.7 499.2c8.4-1.8 13.8-10.1 12.1-18.6a15.66 15.66 0 0 0-18.6-12.1c-6.8 1.4-11.6 7.1-12.3 13.7l-99.7 21.2 2 9.4 99.7-21.2c3.3 5.8 10 9 16.8 7.6zM649.1 517.5l-69.1 5.2 0.7 9.6 69.1-5.2c2.5 6.1 8.7 10.2 15.7 9.7 8.6-0.6 15.1-8.2 14.4-16.8-0.6-8.6-8.2-15.1-16.8-14.4-6.9 0.5-12.4 5.5-14 11.9zM638.9 469.5l-65.2 23.3-3.2-9.1 65.2-23.3c-0.2-6.6 3.8-12.9 10.4-15.2 8.1-2.9 17.1 1.3 20 9.5 2.9 8.1-1.3 17.1-9.5 20-6.6 2.4-13.7 0.1-17.7-5.2zM602.1 677.2c4.7 7.3 14.4 9.3 21.7 4.6 7.2-4.7 9.3-14.4 4.6-21.7-3.8-5.8-10.8-8.3-17.2-6.6l-55.6-85.4-8.1 5.2 55.6 85.4c-4.2 5.3-4.8 12.7-1 18.5zM569.4 643.1l-29.6-62.6-8.7 4.1 29.6 62.6c-4.8 4.5-6.4 11.8-3.4 18.1 3.7 7.8 13 11.1 20.8 7.4 7.8-3.7 11.1-13 7.4-20.8-2.9-6.3-9.6-9.6-16.1-8.8zM610.5 616.4l-45.2-52.5 7.3-6.3 45.2 52.5c6.1-2.6 13.4-1.1 17.9 4.2 5.6 6.6 4.9 16.4-1.6 22.1-6.6 5.6-16.4 4.9-22.1-1.6-4.6-5.3-5-12.8-1.5-18.4zM424 677.2c-4.7 7.3-14.4 9.3-21.6 4.6-7.3-4.7-9.3-14.4-4.6-21.7 3.8-5.8 10.8-8.3 17.2-6.6l55.5-85.4 8.1 5.2-55.6 85.4c4.2 5.3 4.8 12.7 1 18.5zM456.8 643.1l29.6-62.6 8.7 4.1-29.6 62.6c4.8 4.5 6.4 11.8 3.4 18.1-3.7 7.8-13 11.1-20.8 7.4-7.8-3.7-11.1-13-7.4-20.8 2.9-6.3 9.5-9.6 16.1-8.8zM415.7 616.4l45.2-52.5-7.3-6.3-45.2 52.5c-6.1-2.6-13.4-1.1-17.9 4.2-5.6 6.6-4.9 16.4 1.6 22.1 6.6 5.6 16.4 4.9 22.1-1.6 4.5-5.3 4.9-12.8 1.5-18.4z" fill="#F2BC36" p-id="1326"></path><path d="M329.1 499.2c-8.5-1.8-13.9-10.1-12.1-18.6s10.1-13.9 18.6-12.1c6.8 1.4 11.6 7.1 12.3 13.7l99.7 21.2-2 9.4-99.7-21.2c-3.3 5.8-10 9-16.8 7.6zM372.7 517.5l69.1 5.2-0.7 9.6-69.1-5.2c-2.5 6.1-8.7 10.2-15.7 9.7-8.6-0.6-15.1-8.2-14.4-16.8 0.6-8.6 8.1-15.1 16.8-14.4 6.9 0.5 12.5 5.5 14 11.9zM382.9 469.5l65.2 23.3 3.2-9.1-65.2-23.3c0.2-6.6-3.8-12.9-10.4-15.2-8.1-2.9-17.1 1.3-20 9.5-2.9 8.1 1.3 17.1 9.5 20 6.6 2.4 13.7 0.1 17.7-5.2z" fill="#F2BC36" p-id="1327"></path><path d="M433.7 419.6l44.7 53-7.4 6.2-44.7-53c-6.1 2.5-13.4 0.9-17.9-4.4-5.6-6.6-4.7-16.5 1.9-22 6.6-5.6 16.5-4.7 22.1 1.9 4.5 5.2 4.8 12.7 1.3 18.3zM597.4 421.8l-48.1 49.8-6.9-6.7 48.1-49.8c-3.1-5.8-2.3-13.2 2.6-18.2 6-6.2 15.9-6.4 22.1-0.4 6.2 6 6.4 15.9 0.4 22.1-4.9 5-12.2 6.1-18.2 3.2zM634 577l-61.7-31.6 4.4-8.6 61.7 31.6c4.7-4.7 12-6 18.2-2.9 7.7 3.9 10.7 13.4 6.8 21.1-4 7.7-13.4 10.7-21.1 6.8-6.2-3.2-9.4-9.9-8.3-16.4zM508.1 645.5l0.8-69.3 9.6 0.1-0.8 69.3c6.2 2.1 10.7 8.1 10.7 15-0.1 8.6-7.2 15.6-15.9 15.5-8.6-0.1-15.6-7.2-15.5-15.8 0.2-7 4.8-12.9 11.1-14.8zM392.9 577l61.7-31.6-4.4-8.6-61.7 31.6c-4.7-4.7-12-6-18.2-2.9-7.7 3.9-10.7 13.4-6.8 21.1 3.9 7.7 13.4 10.7 21.1 6.8 6.2-3.2 9.3-9.9 8.3-16.4z" fill="#F2BC36" p-id="1328"></path><path d="M513.9 587.1c-43.3 0-78.5-35.2-78.5-78.5s35.2-78.5 78.5-78.5 78.5 35.2 78.5 78.5c0 43.2-35.2 78.5-78.5 78.5z m0-129.2c-27.9 0-50.6 22.7-50.6 50.6 0 27.9 22.7 50.6 50.6 50.6 27.9 0 50.6-22.7 50.6-50.6 0-27.9-22.7-50.6-50.6-50.6z" fill="#F2BC36" p-id="1329"></path><path d="M513.9 592.2c-46.1 0-83.7-37.5-83.7-83.7s37.5-83.7 83.7-83.7c46.1 0 83.7 37.5 83.7 83.7s-37.6 83.7-83.7 83.7z m0-157.1c-40.5 0-73.4 32.9-73.4 73.4s32.9 73.4 73.4 73.4 73.4-32.9 73.4-73.4c0-40.5-33-73.4-73.4-73.4z m0 129.2c-30.7 0-55.7-25-55.7-55.7s25-55.7 55.7-55.7 55.7 25 55.7 55.7c0 30.7-25 55.7-55.7 55.7z m0-101.3c-25.1 0-45.5 20.4-45.5 45.5s20.4 45.5 45.5 45.5 45.5-20.4 45.5-45.5S539 463 513.9 463z" fill="#471A1A" p-id="1330"></path></svg>