<?xml version="1.0" standalone="no"?><!DOCTYPE svg PUBLIC "-//W3C//DTD SVG 1.1//EN" "http://www.w3.org/Graphics/SVG/1.1/DTD/svg11.dtd"><svg t="1597650943613" class="icon" viewBox="0 0 1024 1024" version="1.1" xmlns="http://www.w3.org/2000/svg" p-id="3294" xmlns:xlink="http://www.w3.org/1999/xlink" width="48" height="48"><defs><style type="text/css"></style></defs><path d="M511.977739 88.865391c233.338435 0 423.17913 189.796174 423.17913 423.134609 0 233.316174-189.818435 423.134609-423.17913 423.134609C278.683826 935.134609 88.84313 745.293913 88.84313 512 88.84313 278.661565 278.683826 88.865391 511.977739 88.865391M511.977739 22.082783C241.41913 22.082783 22.060522 241.41913 22.060522 512c0 270.58087 219.358609 489.917217 489.917217 489.917217 270.60313 0 489.961739-219.358609 489.961739-489.917217C1001.939478 241.41913 782.58087 22.082783 511.977739 22.082783L511.977739 22.082783z" p-id="3295" fill="#ffffff"></path><path d="M512 289.257739c-0.222609 0-0.333913 0-0.512 0-122.790957 0.311652-222.230261 99.884522-222.230261 222.742261 0 122.835478 99.439304 222.430609 222.185739 222.742261 0.26713 0 0.356174 0 0.556522 0 122.991304 0 222.72-99.706435 222.72-222.742261C734.742261 389.008696 634.991304 289.257739 512 289.257739zM467.968 330.818783c-15.649391 16.294957-28.91687 41.093565-38.377739 71.43513-17.608348-5.342609-34.526609-12.421565-50.509913-20.902957C403.099826 356.953043 433.708522 339.144348 467.968 330.818783zM367.927652 393.772522c18.075826 9.950609 37.242435 18.098087 57.254957 24.175304-6.566957 25.822609-10.48487 55.006609-11.041391 85.926957l-88.397913 0C327.524174 462.224696 343.062261 424.047304 367.927652 393.772522zM325.743304 520.125217l88.397913 0c0.556522 30.920348 4.474435 60.037565 11.041391 85.904696-20.012522 6.077217-39.223652 14.269217-57.254957 24.175304C343.084522 599.952696 327.546435 561.775304 325.743304 520.125217zM379.058087 642.604522c16.050087-8.570435 32.923826-15.560348 50.532174-20.902957 9.48313 30.341565 22.706087 55.184696 38.4 71.501913C433.664 684.855652 403.055304 667.002435 379.058087 642.604522zM503.919304 697.388522c-22.038261-5.765565-44.388174-35.038609-58.61287-80.050087 18.877217-4.585739 38.489043-7.257043 58.61287-7.835826L503.919304 697.388522zM503.919304 593.296696c-21.704348 0.556522-42.74087 3.450435-63.042783 8.43687-6.077217-23.863652-9.861565-51.422609-10.440348-81.608348l73.48313 0L503.919304 593.296696zM503.919304 503.897043l-73.48313 0c0.556522-30.208 4.34087-57.811478 10.440348-81.719652 20.301913 4.964174 41.338435 7.858087 63.042783 8.43687L503.919304 503.897043zM503.919304 414.386087c-20.123826-0.556522-39.735652-3.250087-58.61287-7.858087 14.224696-44.944696 36.61913-74.173217 58.61287-79.938783L503.919304 414.386087zM698.256696 503.897043l-88.865391 0c-0.601043-30.942609-4.518957-59.993043-11.041391-85.837913 20.21287-6.077217 39.513043-14.291478 57.700174-24.30887C680.96 424.002783 696.475826 462.202435 698.256696 503.897043zM644.87513 381.350957c-16.13913 8.592696-33.124174 15.649391-50.910609 21.036522-9.48313-30.47513-22.728348-55.385043-38.489043-71.746783C589.957565 338.966261 620.78887 356.797217 644.87513 381.350957zM520.147478 326.811826c21.815652 6.032696 43.987478 35.172174 58.078609 79.872-18.69913 4.518957-38.13287 7.145739-58.078609 7.724522L520.147478 326.811826zM582.656 422.288696c6.077217 23.885913 9.817043 51.46713 10.440348 81.608348l-72.926609 0 0-73.260522-0.022261 0C541.606957 430.035478 562.532174 427.186087 582.656 422.288696zM520.147478 520.125217l72.94887 0c-0.601043 30.141217-4.34087 57.655652-10.440348 81.497043-20.123826-4.897391-41.049043-7.746783-62.508522-8.325565L520.147478 520.125217zM520.147478 697.188174l0-87.663304c19.945739 0.556522 39.379478 3.227826 58.12313 7.746783C564.134957 661.949217 542.007652 691.133217 520.147478 697.188174zM555.430957 693.314783c15.738435-16.339478 29.050435-41.271652 38.511304-71.791304 17.786435 5.38713 34.816 12.466087 50.95513 21.081043C620.833391 667.180522 589.957565 685.033739 555.430957 693.314783zM656.094609 630.205217c-18.16487-9.99513-37.487304-18.18713-57.744696-24.30887 6.522435-25.822609 10.440348-54.939826 11.041391-85.77113l88.865391 0C696.475826 561.775304 680.96 599.952696 656.094609 630.205217z" p-id="3296" fill="#ffffff"></path><path d="M517.38713 289.257739c0 0-2.626783 0-5.36487 0C515.940174 289.257739 517.38713 289.257739 517.38713 289.257739M512 289.257739c-0.178087 0-0.356174 0-0.512 0C511.666087 289.257739 511.844174 289.257739 512 289.257739M512 289.257739c122.991304 0 222.72 99.728696 222.72 222.742261 0 123.013565-99.728696 222.742261-222.72 222.742261-0.222609 0-0.422957 0-0.556522 0C388.674783 734.430609 289.257739 634.835478 289.257739 512c0-122.857739 99.461565-222.430609 222.230261-222.742261C511.666087 289.257739 511.844174 289.257739 512 289.257739M511.488 289.257739c-4.162783 0-5.676522 0-5.676522 0S508.638609 289.257739 511.488 289.257739M513.958957 734.742261c0 0-0.645565 0-2.515478 0C512.289391 734.742261 513.958957 734.742261 513.958957 734.742261M511.443478 734.742261c-0.289391 0-0.489739 0-0.489739 0S511.087304 734.742261 511.443478 734.742261M517.38713 255.866435 512 255.866435l-0.512 0-5.676522 0 0 0.066783C367.437913 259.31687 255.866435 373.025391 255.866435 512c0 140.733217 114.398609 255.554783 255.087304 256.133565l0 0c0.133565 0 0.26713 0 0.400696 0l0.155826-7.568696-0.066783 7.568696c0.200348 0 0.378435 0 0.556522 0l0 0 1.958957 0 0-0.022261C654.60313 766.753391 768.133565 652.399304 768.133565 512c0-139.442087-111.972174-253.217391-250.746435-256.066783L517.38713 255.866435 517.38713 255.866435z" p-id="3297" fill="#ffffff"></path></svg>