<?xml version="1.0" standalone="no"?><!DOCTYPE svg PUBLIC "-//W3C//DTD SVG 1.1//EN" "http://www.w3.org/Graphics/SVG/1.1/DTD/svg11.dtd"><svg t="1589768140104" class="icon" viewBox="0 0 1024 1024" version="1.1" xmlns="http://www.w3.org/2000/svg" p-id="3723" xmlns:xlink="http://www.w3.org/1999/xlink" width="48" height="48"><defs><style type="text/css"></style></defs><path d="M194.2 479.8c0-43.8 9.1-87 26.8-127.1h6c52.6 0.1 95.4-42.5 95.5-95.2 0.1-52.6-42.5-95.4-95.2-95.5-52.6-0.1-95.4 42.5-95.5 95.2 0 26.6 11 52 30.6 70.1-84.2 193 4 417.8 197 502 0.8 0.4 1.7 0.7 2.5 1.1 0.4-22 5.3-43.6 14.4-63.6-111.1-52.4-182-164.2-182.1-287z m169.6-281c110.3-58.4 244.7-46.5 343.1 30.4-15.4 50.3 13 103.6 63.3 119 50.3 15.4 103.6-13 119-63.3 15.4-50.3-13-103.6-63.3-119-27.4-8.4-57.1-4-80.9 12-120.2-92.8-284-105.5-417-32.4l1.4 1.2c14.8 14.9 26.5 32.6 34.4 52.1z m516.9 184.3c-18.1 11.6-38.5 19.4-59.8 22.8 39.7 166-58.9 333.7-223.3 379.8-24.1-46.9-81.6-65.3-128.4-41.2-46.9 24.1-65.3 81.6-41.2 128.4 24.1 46.9 81.6 65.3 128.4 41.2 25.4-13.1 43.7-36.9 49.7-64.9 204-51.9 327.3-259.4 275.4-463.3-0.4-1-0.6-1.9-0.8-2.8z m0 0" p-id="3724" fill="#ffffff"></path></svg>