<?xml version="1.0" standalone="no"?><!DOCTYPE svg PUBLIC "-//W3C//DTD SVG 1.1//EN" "http://www.w3.org/Graphics/SVG/1.1/DTD/svg11.dtd"><svg t="1589768526636" class="icon" viewBox="0 0 1024 1024" version="1.1" xmlns="http://www.w3.org/2000/svg" p-id="11927" xmlns:xlink="http://www.w3.org/1999/xlink" width="48" height="48"><defs><style type="text/css"></style></defs><path d="M512 0a512 512 0 1 0 512 512A512 512 0 0 0 512 0z m0 942.08a430.08 430.08 0 1 1 430.08-430.08 430.08 430.08 0 0 1-430.08 430.08z" p-id="11928" fill="#ffffff"></path><path d="M637.7472 355.1232q-54.6816-63.5904-150.4256-63.5904t-150.9376 64.1024q-52.3264 60.0064-52.3264 156.8768t52.3264 156.3648q55.296 63.5904 150.4256 63.5904t150.9376-63.5904q52.3264-61.44 52.3264-156.3648t-52.3264-157.3888z m-36.2496 285.2864q-41.5744 48.7424-114.688 48.7424t-114.688-49.9712q-39.2192-48.128-39.2192-126.5664t39.2192-127.1808Q413.696 334.848 487.424 334.848t114.176 48.7424q39.8336 48.7424 39.8336 129.024t-39.936 127.7952zM726.2208 699.904q6.144-15.7696 36.9664-36.1472a278.2208 278.2208 0 0 0 39.6288-30.72 66.56 66.56 0 0 0 18.7392-45.2608 53.6576 53.6576 0 0 0-17.408-40.96 64.7168 64.7168 0 0 0-45.2608-15.7696 62.3616 62.3616 0 0 0-49.2544 20.48 74.3424 74.3424 0 0 0-18.432 51.2h29.184a58.9824 58.9824 0 0 1 10.24-35.0208A31.744 31.744 0 0 1 757.76 555.3152a37.4784 37.4784 0 0 1 26.0096 7.9872 30.72 30.72 0 0 1 8.8064 24.064 46.4896 46.4896 0 0 1-13.1072 31.3344 214.3232 214.3232 0 0 1-27.3408 21.9136 248.4224 248.4224 0 0 0-43.008 35.2256 73.0112 73.0112 0 0 0-19.0464 50.0736h131.7888v-26.0096z" p-id="11929" fill="#ffffff"></path></svg>