<?xml version="1.0" standalone="no"?><!DOCTYPE svg PUBLIC "-//W3C//DTD SVG 1.1//EN" "http://www.w3.org/Graphics/SVG/1.1/DTD/svg11.dtd"><svg t="1589768246997" class="icon" viewBox="0 0 1063 1024" version="1.1" xmlns="http://www.w3.org/2000/svg" p-id="5823" xmlns:xlink="http://www.w3.org/1999/xlink" width="49.828125" height="48"><defs><style type="text/css"></style></defs><path d="M531.456 866.304c-185.344 0-334.848-149.504-334.848-334.848s149.504-334.848 334.848-334.848 334.848 149.504 334.848 334.848-149.504 334.848-334.848 334.848z m0-606.208c-149.504 0-271.872 121.856-271.872 271.872S381.44 803.84 531.456 803.84s271.872-121.856 271.872-271.872-121.856-271.872-271.872-271.872z" p-id="5824" fill="#ffffff"></path><path d="M956.928 709.12c-27.648 0-51.2-23.552-51.2-51.2V500.224c0-27.648 19.456-47.104 47.104-51.2h4.096v-4.096c-23.552-224.256-208.896-397.824-425.472-397.824s-401.408 173.568-424.96 397.824v4.096h4.096c23.552 4.096 47.104 23.552 47.104 51.2v157.696c0 27.648-23.552 51.2-51.2 51.2H51.2c-27.648 0-51.2-23.552-51.2-51.2V500.224c0-27.648 23.552-51.2 51.2-51.2h4.096v-4.096C82.944 193.024 287.744 0 531.456 0s449.024 193.024 476.672 449.024v4.096h4.096c27.648 0 51.2 23.552 51.2 51.2v157.696c0 27.648-23.552 51.2-51.2 51.2l-55.296-4.096zM740.352 1024H323.072c-16.896 0-30.72-13.824-30.72-30.72s13.824-30.72 30.72-30.72h417.28c16.896 0 30.72 13.824 30.72 30.72s-13.824 30.72-30.72 30.72z" p-id="5825" fill="#ffffff"></path></svg>